<svg width="24" height="25" viewBox="0 0 24 25" fill="none" xmlns="http://www.w3.org/2000/svg">
<g id="group">
<mask id="mask0_1007_12049" style="mask-type:alpha" maskUnits="userSpaceOnUse" x="0" y="0" width="24" height="25">
<rect id="Bounding box" y="0.71875" width="24" height="24" fill="#D9D9D9"/>
</mask>
<g mask="url(#mask0_1007_12049)">
<path id="group_2" d="M2.69999 20.0189C2.44999 20.0189 2.23732 19.9356 2.06199 19.7689C1.88732 19.6023 1.79999 19.3856 1.79999 19.1189V17.7939C1.79999 17.2773 1.93332 16.8189 2.19999 16.4189C2.46665 16.0189 2.82499 15.7023 3.27499 15.4689C4.22499 15.0189 5.17932 14.6649 6.13799 14.4069C7.09599 14.1483 8.14999 14.0189 9.29999 14.0189C10.45 14.0189 11.5043 14.1483 12.463 14.4069C13.421 14.6649 14.375 15.0189 15.325 15.4689C15.775 15.7023 16.1333 16.0189 16.4 16.4189C16.6667 16.8189 16.8 17.2773 16.8 17.7939V19.1189C16.8 19.3856 16.7127 19.6023 16.538 19.7689C16.3627 19.9356 16.15 20.0189 15.9 20.0189H2.69999ZM18.4 20.0189C18.5333 19.9189 18.6333 19.7899 18.7 19.6319C18.7667 19.4733 18.8 19.3023 18.8 19.1189V17.6689C18.8 17.0189 18.6373 16.3979 18.312 15.8059C17.9873 15.2146 17.5333 14.7023 16.95 14.2689C17.6167 14.3689 18.25 14.5229 18.85 14.7309C19.45 14.9396 20.025 15.1856 20.575 15.4689C21.0917 15.7523 21.4917 16.0816 21.775 16.4569C22.0583 16.8316 22.2 17.2356 22.2 17.6689V19.1189C22.2 19.3856 22.1127 19.6023 21.938 19.7689C21.7627 19.9356 21.55 20.0189 21.3 20.0189H18.4ZM9.29999 12.4189C8.33332 12.4189 7.50832 12.0729 6.82499 11.3809C6.14165 10.6896 5.79999 9.86895 5.79999 8.91895C5.79999 7.95228 6.14165 7.12728 6.82499 6.44395C7.50832 5.76061 8.33332 5.41895 9.29999 5.41895C10.2667 5.41895 11.0917 5.76061 11.775 6.44395C12.4583 7.12728 12.8 7.95228 12.8 8.91895C12.8 9.86895 12.4583 10.6896 11.775 11.3809C11.0917 12.0729 10.2667 12.4189 9.29999 12.4189ZM17.925 8.91895C17.925 9.86895 17.5833 10.6896 16.9 11.3809C16.2167 12.0729 15.3917 12.4189 14.425 12.4189C14.325 12.4189 14.1873 12.4063 14.012 12.3809C13.8373 12.3563 13.6917 12.3273 13.575 12.2939C13.975 11.8106 14.2793 11.2816 14.488 10.7069C14.696 10.1316 14.8 9.53561 14.8 8.91895C14.8 8.28561 14.6917 7.68561 14.475 7.11895C14.2583 6.55228 13.9583 6.02728 13.575 5.54395C13.7083 5.49395 13.85 5.46061 14 5.44395C14.15 5.42728 14.2917 5.41895 14.425 5.41895C15.3917 5.41895 16.2167 5.76061 16.9 6.44395C17.5833 7.12728 17.925 7.95228 17.925 8.91895ZM3.29999 18.5189H15.3V17.7939C15.3 17.5939 15.246 17.4106 15.138 17.2439C15.0293 17.0773 14.8667 16.9356 14.65 16.8189C13.8167 16.4023 12.9667 16.0813 12.1 15.8559C11.2333 15.6313 10.3 15.5189 9.29999 15.5189C8.29999 15.5189 7.36265 15.6313 6.48799 15.8559C5.61265 16.0813 4.76665 16.4023 3.94999 16.8189C3.71665 16.9356 3.54999 17.0773 3.44999 17.2439C3.34999 17.4106 3.29999 17.5939 3.29999 17.7939V18.5189ZM9.29999 10.9189C9.84999 10.9189 10.321 10.7229 10.713 10.3309C11.1043 9.93961 11.3 9.46895 11.3 8.91895C11.3 8.36895 11.1043 7.89795 10.713 7.50595C10.321 7.11461 9.84999 6.91895 9.29999 6.91895C8.74999 6.91895 8.27932 7.11461 7.88799 7.50595C7.49599 7.89795 7.29999 8.36895 7.29999 8.91895C7.29999 9.46895 7.49599 9.93961 7.88799 10.3309C8.27932 10.7229 8.74999 10.9189 9.29999 10.9189Z" fill="#0A3998"/>
</g>
</g>
</svg>
