<svg width="12" height="12" viewBox="0 0 12 12" fill="none" xmlns="http://www.w3.org/2000/svg">
<path id="Vector" d="M5.994 0C2.682 0 0 2.688 0 6C0 9.312 2.682 12 5.994 12C9.312 12 12 9.312 12 6C12 2.688 9.312 0 5.994 0ZM6 10.8C3.348 10.8 1.2 8.652 1.2 6C1.2 3.348 3.348 1.2 6 1.2C8.652 1.2 10.8 3.348 10.8 6C10.8 8.652 8.652 10.8 6 10.8ZM5.868 3H5.832C5.592 3 5.4 3.192 5.4 3.432V6.264C5.4 6.474 5.508 6.672 5.694 6.78L8.184 8.274C8.388 8.394 8.652 8.334 8.772 8.13C8.898 7.926 8.832 7.656 8.622 7.536L6.3 6.156V3.432C6.3 3.192 6.108 3 5.868 3Z" fill="#B54708"/>
</svg>
